
<svg 
 width="1128pt" height="1128pt" viewBox="0 0 992.000000 918.000000"
 preserveAspectRatio="xMidYMid meet">

<g transform="translate(0.000000,918.000000) scale(0.100000,-0.100000)"
fill="#000000" stroke="none">
<path d="M1885 7889 c-121 -3 -311 -7 -421 -8 -215 -1 -220 -2 -207 -50 3 -12
6 -22 7 -22 0 -1 80 -4 176 -8 171 -6 177 -7 243 -38 82 -39 172 -126 206
-199 54 -114 51 26 51 -2324 0 -2340 2 -2214 -46 -2320 -40 -87 -145 -181
-244 -220 -45 -18 -85 -23 -220 -28 -161 -7 -165 -8 -168 -30 l-3 -22 1412 0
c1529 0 1486 -1 1724 55 571 134 990 355 1299 684 27 29 54 50 60 47 25 -11
395 -158 441 -175 586 -218 917 -451 1092 -769 85 -154 123 -309 123 -500 0
-173 -23 -282 -84 -408 -83 -169 -207 -300 -416 -441 -129 -86 -387 -189 -580
-231 -255 -55 -440 -61 -735 -23 -238 31 -477 115 -668 238 -403 258 -729 763
-886 1374 -28 111 -45 146 -56 118 -3 -8 -4 -441 -3 -964 3 -937 3 -950 23
-950 16 0 21 11 30 70 38 255 253 368 584 310 105 -19 129 -25 296 -80 154
-51 251 -77 393 -105 286 -56 429 -70 717 -70 413 0 692 48 975 168 387 163
687 440 857 792 115 237 168 503 143 721 -19 173 -61 320 -133 464 -218 437
-677 812 -1282 1049 -585 229 -819 328 -1055 446 -509 254 -775 511 -870 841
-27 93 -38 287 -21 385 61 352 292 605 661 724 72 24 209 55 214 49 6 -6 73
-342 81 -404 3 -27 12 -98 20 -157 8 -59 21 -196 29 -305 17 -223 27 -282 62
-389 86 -266 285 -488 546 -613 37 -18 72 -30 76 -27 20 12 52 394 52 621 0
429 -71 865 -191 1165 -45 112 -45 110 -18 110 45 0 221 -40 310 -70 439 -147
734 -482 850 -965 15 -62 37 -220 44 -320 4 -49 12 -96 17 -102 14 -17 33 -16
52 3 14 14 16 94 16 738 0 640 -2 725 -15 736 -20 17 -28 7 -43 -53 -34 -137
-144 -207 -323 -207 l-87 0 -133 69 c-209 108 -356 163 -593 221 -87 21 -159
40 -161 42 -1 2 -12 24 -23 51 -73 167 -238 394 -411 568 -155 155 -214 204
-355 297 -101 66 -323 183 -385 203 -14 4 -64 22 -111 39 -265 99 -590 154
-1104 190 -241 17 -377 20 -946 18 -366 -1 -764 -5 -885 -9z m2019 -60 c289
-35 532 -111 770 -242 142 -78 251 -160 379 -286 202 -198 332 -411 413 -675
29 -96 29 -106 5 -106 -25 0 -241 -56 -316 -82 -125 -43 -290 -118 -380 -172
-68 -40 -220 -155 -276 -208 -89 -84 -203 -236 -257 -344 -35 -68 -92 -227
-92 -255 0 -14 -4 -29 -9 -35 -5 -5 -17 -65 -27 -133 -33 -240 -2 -511 86
-728 48 -120 90 -188 176 -287 184 -210 500 -439 866 -626 38 -19 68 -41 68
-48 0 -7 -32 -66 -71 -130 -261 -430 -596 -692 -988 -772 -94 -19 -136 -20
-784 -20 l-684 0 -40 29 c-22 16 -50 49 -62 73 l-21 44 0 2432 c0 2167 2 2437
15 2469 19 45 40 70 80 94 28 18 61 19 544 19 313 0 549 -4 605 -11z m1771
-4357 c-3 -3 -11 0 -18 7 -9 10 -8 11 6 5 10 -3 15 -9 12 -12z m75 -32 c0 -5
-5 -10 -11 -10 -5 0 -7 5 -4 10 3 6 8 10 11 10 2 0 4 -4 4 -10z m215 -60 c3
-5 -1 -10 -10 -10 -9 0 -13 5 -10 10 3 6 8 10 10 10 2 0 7 -4 10 -10z"/>
</g>
</svg>
